<?xml version="1.0" encoding="UTF-8" standalone="no"?>
<svg
   id="body_1"
   width="40"
   height="40"
   version="1.1"
   sodipodi:docname="pluginIcon.svg"
   inkscape:version="1.1.2 (0a00cf5339, 2022-02-04, custom)"
   xmlns:inkscape="http://www.inkscape.org/namespaces/inkscape"
   xmlns:sodipodi="http://sodipodi.sourceforge.net/DTD/sodipodi-0.dtd"
   xmlns="http://www.w3.org/2000/svg"
   xmlns:svg="http://www.w3.org/2000/svg">
  <defs
     id="defs41" />
  <sodipodi:namedview
     id="namedview39"
     pagecolor="#ffffff"
     bordercolor="#666666"
     borderopacity="1.0"
     inkscape:pageshadow="2"
     inkscape:pageopacity="0.0"
     inkscape:pagecheckerboard="0"
     showgrid="true"
     inkscape:snap-bbox="true"
     inkscape:snap-others="true"
     inkscape:snap-grids="true"
     inkscape:snap-bbox-midpoints="false"
     inkscape:bbox-nodes="false"
     inkscape:zoom="31.608696"
     inkscape:cx="18.618294"
     inkscape:cy="4.6822558"
     inkscape:window-width="1920"
     inkscape:window-height="1020"
     inkscape:window-x="0"
     inkscape:window-y="32"
     inkscape:window-maximized="1"
     inkscape:current-layer="g36">
    <inkscape:grid
       type="xygrid"
       id="grid43" />
    <sodipodi:guide
       position="0,40"
       orientation="0,40"
       id="guide49" />
    <sodipodi:guide
       position="40,40"
       orientation="40,0"
       id="guide51" />
    <sodipodi:guide
       position="40,0"
       orientation="0,-40"
       id="guide53" />
    <sodipodi:guide
       position="0,0"
       orientation="-40,0"
       id="guide55" />
  </sodipodi:namedview>
  <g
     transform="matrix(0.21597305,0,0,0.21597305,0.04141742,2.9807992)"
     id="g36">
    <g
       transform="matrix(0.92612672,0,0,0.92612672,6.6491826,-146.48399)"
       id="g34">
      <g
         transform="matrix(1.1851273,0,0,1.1851273,-46.509037,-43.085712)"
         id="g32">
        <path
           d="m 65.14763,252.04652 -13.69314,12.86684 c -2.215553,2.08176 -11.276614,-8.1301 -9.855876,-15.0603 1.420716,-6.92986 19.219406,-6.46511 19.219406,-6.46511 2.39887,1.51589 5.435184,7.61965 4.32961,8.65857 z"
           stroke="none"
           fill="#ff9197"
           fill-rule="nonzero"
           id="path2" />
        <path
           d="m 56.419205,268.25647 c 7.088112,18.41696 30.057605,8.89111 34.853895,8.36609 3.87922,-0.42376 8.53156,2.66154 17.18474,2.94254 8.65318,0.28042 13.3739,-2.2118 20.80998,-1.1451 7.43608,1.06676 18.98474,11.34627 42.44383,4.35505 31.00002,-9.35467 -7.40275,-83.34762 -56.8543,-83.34762 -49.45151,0 -65.52634,50.41231 -58.438153,68.82907 v 0 z"
           stroke="none"
           fill="#ffc7c7"
           fill-rule="nonzero"
           id="path4" />
        <path
           d="m 163.60735,255.29262 17.10438,18.01216 c 2.76746,2.91449 14.08176,-8.72662 12.4437,-18.15729 -1.63807,-9.43082 -24.2903,-9.61165 -24.2903,-9.61165 -3.08846,1.93984 -6.6388,8.30242 -5.25778,9.75676 v 0 z"
           stroke="none"
           fill="#ff9197"
           fill-rule="nonzero"
           id="path6" />
        <g
           transform="matrix(2.2876818,0,0,2.2876818,49.531322,-57.681835)"
           id="g30">
          <path
             d="m 8.104474,142.94171 c 0.216042,-0.14647 6.947651,-5.63435 13.009479,-5.74632 4.111955,-0.0765 7.560344,-0.51357 12.552087,1.55116 4.991732,2.06496 10.614035,6.10999 10.760443,6.19962 0.146382,0.0892 0.243542,0.5982 0.137741,0.82525 -0.105789,0.22673 -0.447689,0.15871 -0.570621,0.0776 -0.122953,-0.0814 -6.247326,-3.71399 -10.484986,-5.46672 -4.237659,-1.75273 -7.874919,-1.547 -12.552076,-1.55116 -6.062888,-0.007 -12.191164,5.02803 -12.3868,5.06295 -0.1956575,0.0412 -0.662729,0.17525 -0.783266,-0.1072 -0.100386,-0.23443 0.101974,-0.6993 0.318016,-0.84537 v 0 z"
             stroke="none"
             fill="#b06264"
             fill-rule="nonzero"
             id="path8" />
          <path
             d="m 18.07067,130.45116 c 0.01751,1.40142 -0.513446,2.75258 -1.476073,3.75621 -0.962628,1.00361 -2.278068,1.5775 -3.656939,1.59539 -2.871318,0.0373 -5.2285406,-2.29827 -5.2650186,-5.21658 -0.017527,-1.40144 0.5134286,-2.75261 1.4760576,-3.75624 0.962629,-1.00363 2.278079,-1.57751 3.656959,-1.59541 2.871333,-0.0373 5.228558,2.2983 5.265014,5.21663 z"
             stroke="none"
             fill="#fffefe"
             fill-rule="nonzero"
             id="path10" />
          <path
             d="m 13.107908,134.69345 c -2.241594,0.13689 -4.1683805,-1.5977 -4.304865,-3.87584 -0.136521,-2.27811 1.568963,-4.23799 3.81033,-4.3787 2.241358,-0.14055 4.170881,1.59095 4.311357,3.87549 0.133292,2.28493 -1.575244,4.24201 -3.816822,4.37905 z"
             stroke="none"
             fill="#000000"
             fill-rule="nonzero"
             id="path12" />
          <path
             d="m 13.553519,127.89353 c 0.391116,-0.53608 1.813031,-0.0602 2.311122,0.83111 0.498089,0.89095 0.493677,2.25983 -0.33173,2.53615 -0.825488,0.27592 -0.765065,-0.79935 -1.197676,-1.55733 -0.432733,-0.75801 -1.172982,-1.27383 -0.781761,-1.80976 v 0 z"
             stroke="none"
             fill="#ffffff"
             fill-rule="nonzero"
             id="path14" />
          <path
             transform="matrix(0.9982613,0.05894442,-0.08221311,0.99661475,0,0)"
             d="m 25.684912,131.07529 c 0,-0.35424 0.236484,-0.64139 0.528204,-0.64139 0.291719,0 0.528204,0.28715 0.528204,0.64139 0,0.35423 -0.236485,0.64138 -0.528204,0.64138 -0.29172,0 -0.528204,-0.28715 -0.528204,-0.64138"
             stroke="none"
             fill="#ffffff"
             fill-rule="nonzero"
             id="path16" />
          <path
             d="m 29.827618,130.04291 c 0.236274,3.71994 -2.744736,6.94014 -6.660206,7.19459 -3.91547,0.25444 -7.28445,-2.55311 -7.52701,-6.27266 -0.242552,-3.71956 2.733093,-6.94426 6.648197,-7.20465 3.915075,-0.26037 7.288801,2.54203 7.537621,6.26114"
             stroke="none"
             fill="#ffc7c7"
             fill-rule="nonzero"
             id="path18" />
          <path
             d="m 29.235752,132.42957 c -0.832939,2.48022 -3.194576,4.35285 -6.08684,4.5401 -3.759756,0.24406 -6.994371,-2.45238 -7.226625,-6.02401 -0.105893,-1.62931 0.431332,-3.15973 1.403879,-4.36592 0,0 0.612461,-0.69166 0.24205,-0.9855 -0.370401,-0.294 -0.897854,0.53034 -0.897854,0.53034 -1.082507,1.34874 -1.679752,3.0574 -1.561162,4.87617 0.261575,3.99717 3.882116,7.01399 8.089935,6.74086 3.24156,-0.21024 5.88755,-2.31175 6.816578,-5.09346 0,0 0.218096,-0.56995 -0.164377,-0.7067 -0.382464,-0.13676 -0.615628,0.48813 -0.615628,0.48813 v 0 z"
             stroke="none"
             fill="#b06264"
             fill-rule="nonzero"
             id="path20" />
          <path
             d="m 40.744957,130.40002 c 0.01751,1.40145 -0.513447,2.7526 -1.476074,3.75623 -0.962623,1.00362 -2.278069,1.5775 -3.656937,1.59538 -2.871319,0.0373 -5.22854,-2.29828 -5.265018,-5.21658 -0.01752,-1.40145 0.513429,-2.75261 1.476059,-3.75624 0.962631,-1.00363 2.27808,-1.57752 3.656959,-1.59541 2.871334,-0.0373 5.228562,2.2983 5.265014,5.21662 v 0 z"
             stroke="none"
             fill="#fffefe"
             fill-rule="nonzero"
             id="path22" />
          <path
             d="m 35.782192,134.64233 c -2.241592,0.13692 -4.168382,-1.5977 -4.304865,-3.87585 -0.136514,-2.27811 1.568963,-4.23799 3.810333,-4.3787 2.24136,-0.14059 4.170878,1.59095 4.311354,3.8755 0.133293,2.28492 -1.575244,4.242 -3.816822,4.37905 z"
             stroke="none"
             fill="#000000"
             fill-rule="nonzero"
             id="path24" />
          <path
             d="m 36.227806,127.84241 c 0.391117,-0.53609 1.81303,-0.0601 2.311124,0.83111 0.498088,0.89095 0.493674,2.25983 -0.33173,2.53614 -0.82549,0.27592 -0.765065,-0.79935 -1.19768,-1.55733 -0.432734,-0.75801 -1.17298,-1.27383 -0.78176,-1.80977 v 0 z"
             stroke="none"
             fill="#ffffff"
             fill-rule="nonzero"
             id="path26" />
          <path
             transform="matrix(0.9982613,0.05894442,-0.08221311,0.99661475,0,0)"
             d="m 48.284386,129.68732 c 0,-0.35424 0.236484,-0.64139 0.528202,-0.64139 0.291717,0 0.528202,0.28715 0.528202,0.64139 0,0.35423 -0.236485,0.64138 -0.528202,0.64138 -0.291718,0 -0.528202,-0.28715 -0.528202,-0.64138"
             stroke="none"
             fill="#ffffff"
             fill-rule="nonzero"
             id="path28" />
        </g>
      </g>
    </g>
  </g>
</svg>
